<?xml version="1.0" encoding="utf-8"?><!-- Uploaded to: SVG Repo, www.svgrepo.com, Generator: SVG Repo Mixer Tools -->
<svg fill="#000000" width="800px" height="800px" viewBox="0 0 24 24" id="ear-left" data-name="Flat Line" xmlns="http://www.w3.org/2000/svg" class="icon flat-line"><path id="secondary" d="M17.92,10.12c-.19,1.28-.86,1.92-1.12,3.29s.3,1.48.17,4c-.11,1.35-.41,3.55-3,3.55-3,0-3-4-5-5.94s-3-4-3-5.93,1.49-5.32,4.8-5.94C18,1.82,18.22,8.2,17.92,10.12Z" style="fill: rgb(44, 169, 188); stroke-width: 2;"></path><path id="primary" d="M14,9c-.32-2.47-2.29-2-2.61-1.93a2.14,2.14,0,0,0-1.39,2,3.8,3.8,0,0,0,1.81,3.13" style="fill: none; stroke: rgb(0, 0, 0); stroke-linecap: round; stroke-linejoin: round; stroke-width: 2;"></path><path id="primary-2" data-name="primary" d="M17.92,10.12c-.19,1.28-.86,1.92-1.12,3.29s.3,1.48.17,4c-.11,1.35-.41,3.55-3,3.55-3,0-3-4-5-5.94s-3-4-3-5.93,1.49-5.32,4.8-5.94C18,1.82,18.22,8.2,17.92,10.12Z" style="fill: none; stroke: rgb(0, 0, 0); stroke-linecap: round; stroke-linejoin: round; stroke-width: 2;"></path></svg>